<?xml version="1.0" encoding="utf-8"?>
<!-- Generator: Adobe Illustrator 15.1.0, SVG Export Plug-In . SVG Version: 6.00 Build 0)  -->
<!DOCTYPE svg PUBLIC "-//W3C//DTD SVG 1.1//EN" "http://www.w3.org/Graphics/SVG/1.1/DTD/svg11.dtd">
<svg version="1.1" id="svg2" xmlns:svg="http://www.w3.org/2000/svg"
	 xmlns="http://www.w3.org/2000/svg" xmlns:xlink="http://www.w3.org/1999/xlink" x="0px" y="0px" width="875px" height="575px"
	 viewBox="0 0 875 575" enable-background="new 0 0 875 575" xml:space="preserve">
<g id="layer1">
	
		<linearGradient id="path3195_1_" gradientUnits="userSpaceOnUse" x1="531" y1="-87.5" x2="881" y2="-87.5" gradientTransform="matrix(0 1 1 0 362.5 -481)">
		<stop  offset="0" style="stop-color:#000080"/>
		<stop  offset="1" style="stop-color:#8181FF"/>
	</linearGradient>
	<path id="path3195" fill="url(#path3195_1_)" d="M500,50H100c-27.6,0-50,78.4-50,175c0,96.6,22.4,175,50,175h400
		c-27.6,0-50-78.4-50-175C450,128.4,472.4,50,500,50z"/>
</g>
<g id="layer2">
	
		<linearGradient id="path5161_1_" gradientUnits="userSpaceOnUse" x1="584.2002" y1="-87.5" x2="934.2002" y2="-87.5" gradientTransform="matrix(0 0.7143 1 0 412.5 -317.2858)">
		<stop  offset="0" style="stop-color:#008000"/>
		<stop  offset="1" style="stop-color:#81FF81"/>
	</linearGradient>
	<path id="path5161" fill="url(#path5161_1_)" d="M550,100H150c-27.6,0-50,56-50,125s22.4,125,50,125h400c-27.6,0-50-56-50-125
		S522.4,100,550,100z"/>
</g>
<g id="layer3">
	
		<linearGradient id="path6141_1_" gradientUnits="userSpaceOnUse" x1="708.333" y1="-87.5" x2="1058.333" y2="-87.5" gradientTransform="matrix(0 0.4286 1 0 462.5 -153.5712)">
		<stop  offset="0" style="stop-color:#800000"/>
		<stop  offset="1" style="stop-color:#FF8181"/>
	</linearGradient>
	<path id="path6141" fill="url(#path6141_1_)" d="M600,150H200c-27.6,0-50,33.6-50,75s22.4,75,50,75h400c-27.6,0-50-33.6-50-75
		S572.4,150,600,150z"/>
</g>
<g id="layer4">
	
		<linearGradient id="path7121_1_" gradientUnits="userSpaceOnUse" x1="1329" y1="-87.5" x2="1679" y2="-87.5" gradientTransform="matrix(0 0.1429 1 0 512.5 10.1428)">
		<stop  offset="0" style="stop-color:#000000"/>
		<stop  offset="1" style="stop-color:#FFFFFF"/>
	</linearGradient>
	<path id="path7121" fill="url(#path7121_1_)" d="M650,200H250c-27.6,0-50,11.2-50,25s22.4,25,50,25h400c-27.6,0-50-11.2-50-25
		S622.4,200,650,200z"/>
</g>
<g id="layer12">
	<text transform="matrix(1 0 0 1 637.002 232.0078)" font-family="'ArialMT'" font-size="24">Message</text>
	<text transform="matrix(1 0 0 1 582.9883 183.0078)" fill="#800000" font-family="'ArialMT'" font-size="24">Router C Key</text>
	<text transform="matrix(1 0 0 1 532.1338 135.0078)" fill="#008000" font-family="'ArialMT'" font-size="24">Router B Key</text>
	<text transform="matrix(1 0 0 1 487.6445 85.0078)" fill="#000080" font-family="'ArialMT'" font-size="24">Router A Key</text>
</g>
</svg>
